<svg version="1.1" id="Capa_1" xmlns="http://www.w3.org/2000/svg" xmlns:xlink="http://www.w3.org/1999/xlink" x="0px" y="0px"
	 viewBox="0 0 512 512" style="enable-background:new 0 0 512 512;" xml:space="preserve">
<g>
	<g>
		<path d="M512,71.596c0-13.719-5.344-26.617-15.044-36.317c-20.025-20.025-52.608-20.024-72.634,0l-1.512,1.511
			c-0.001,0.002-0.003,0.003-0.005,0.005c-0.003,0.003-0.006,0.007-0.01,0.01l-44.12,44.12c-0.001,0.002-0.003,0.003-0.005,0.005
			c-0.003,0.003-0.006,0.007-0.01,0.01L255.388,204.213c-30.172-6-61.756,3.433-83.649,25.324
			c-28.553,28.553-26.538,55.759-24.59,82.069c1.551,20.939,3.154,42.592-8.937,69.176c-1.291,2.837-1.185,6.114,0.287,8.861
			c1.472,2.748,4.141,4.652,7.217,5.15c17.396,2.816,33.728,4.222,48.975,4.222c46.161,0,82.372-12.885,108.006-38.518
			c0.146-0.146,0.284-0.296,0.428-0.443c0.271-0.252,0.529-0.517,0.77-0.796c21.028-21.833,30.014-52.797,24.126-82.409
			l168.935-168.935C506.656,98.212,512,85.315,512,71.596z M161.296,376.828c8.83-25.735,7.23-47.336,5.798-66.699
			c-0.875-11.814-1.632-22.123-0.073-31.955c0.044-0.025,0.089-0.043,0.133-0.069c0.121-0.071,12.506-6.971,26.356-2.348
			c12.121,4.049,22.293,15.723,30.234,34.699c12.804,30.6,31.909,43.202,45.682,48.384c0.833,0.314,1.654,0.598,2.468,0.868
			C244.969,376.884,207.917,382.632,161.296,376.828z M291.675,343.029c-8.688,0.036-33.979-3.239-49.484-40.291
			c-10.265-24.533-24.513-39.992-42.348-45.949c-8.468-2.828-16.488-3.032-23.248-2.157c2.503-3.588,5.552-7.221,9.285-10.955
			c17.644-17.644,43.323-24.969,67.578-19.434l54.532,54.533C313.184,301.55,307.045,325.576,291.675,343.029z M317.042,259.545
			l-44.352-44.352l31.942-31.942l44.352,44.352L317.042,259.545z M363.125,213.461l-44.352-44.352l33.69-33.69
			c-0.366,3.336-0.57,6.706-0.57,10.109c0,21.491,7.391,41.853,20.96,58.204L363.125,213.461z M387.084,189.503
			c-9.838-12.512-15.191-27.832-15.191-43.975c0-19.047,7.428-36.965,20.917-50.455l3.789-3.789
			c-0.366,3.336-0.57,6.706-0.57,10.109c-0.001,21.491,7.39,41.853,20.959,58.205L387.084,189.503z M431.218,145.368
			c-9.838-12.512-15.191-27.832-15.191-43.975c0-19.048,7.429-36.968,20.92-50.458l1.517-1.517c0.705-0.705,1.439-1.37,2.197-1.998
			c-2.689,24.401,4.569,48.878,20.464,68.04L431.218,145.368z M482.815,93.771l-7.469,7.469
			c-13.538-17.223-18.406-39.573-13.142-60.968c7.789,0.38,15.058,3.594,20.61,9.147c5.924,5.924,9.187,13.799,9.187,22.175
			C492.001,79.971,488.739,87.848,482.815,93.771z"/>
	</g>
</g>
<g>
	<g>
		<path d="M407.051,248.931c-1.859-1.86-4.439-2.93-7.068-2.93c-2.63,0-5.21,1.07-7.069,2.93s-2.93,4.44-2.93,7.069
			c0,2.63,1.069,5.21,2.93,7.069c1.861,1.86,4.44,2.93,7.069,2.93c2.63,0,5.21-1.07,7.068-2.93c1.86-1.86,2.931-4.44,2.931-7.069
			C409.982,253.37,408.912,250.79,407.051,248.931z"/>
	</g>
</g>
<g>
	<g>
		<path d="M202.837,50.946c-1.86-1.86-4.44-2.93-7.069-2.93s-5.21,1.07-7.068,2.93c-1.861,1.86-2.931,4.44-2.931,7.069
			c0,2.63,1.071,5.21,2.931,7.069c1.859,1.86,4.439,2.93,7.068,2.93s5.209-1.07,7.069-2.93c1.861-1.86,2.93-4.44,2.93-7.069
			C205.766,55.385,204.696,52.806,202.837,50.946z"/>
	</g>
</g>
<g>
	<g>
		<path d="M461.787,435.986h-51.806V296.997c0-5.523-4.478-9.999-9.999-9.999c-5.522,0-9.999,4.477-9.999,9.999v138.989H121.991
			c-5.522,0-9.999,4.477-9.999,9.999c0,25.362-20.634,45.996-45.996,45.996s-45.997-20.634-45.997-45.996V68.014h133.711
			c5.522,0,9.999-4.477,9.999-9.999s-4.478-9.999-9.999-9.999H19.998V20.018h369.995v10.217c0,5.523,4.478,9.999,9.999,9.999
			c5.522,0,9.999-4.477,9.999-9.999V10.019c0-5.523-4.478-9.999-9.999-9.999H9.999C4.478,0.02,0,4.496,0,10.019v435.967
			c0,35.266,27.804,64.16,62.642,65.911c0.427,0.055,0.861,0.084,1.303,0.084h341.846c36.39,0,65.995-29.605,65.995-65.995
			C471.786,440.463,467.309,435.986,461.787,435.986z M405.791,491.982H113.276c9.373-9.632,15.838-22.11,17.958-35.997h319.459
			C446.114,476.554,427.72,491.982,405.791,491.982z"/>
	</g>
</g>
</svg>
